<svg width="144" height="200" viewBox="0 0 144 200" fill="none" xmlns="http://www.w3.org/2000/svg">
<path d="M0 8.05C0 5.20255 0 3.77882 0.562933 2.69513C1.03731 1.78191 1.78191 1.03731 2.69513 0.562933C3.77882 0 5.20255 0 8.05 0H84C111.614 0 134 22.3858 134 50C134 77.6142 111.614 100 84 100H0V8.05Z" fill="url(#paint0_linear_28_11)"/>
<path d="M0 100H94C121.614 100 144 122.386 144 150C144 177.614 121.614 200 94 200H8C5.19974 200 3.79961 200 2.73005 199.455C1.78924 198.976 1.02433 198.211 0.544967 197.27C0 196.2 0 194.8 0 192V100Z" fill="url(#paint1_linear_28_11)"/>
<defs>
<linearGradient id="paint0_linear_28_11" x1="134" y1="57.6667" x2="0.000300983" y2="57.2368" gradientUnits="userSpaceOnUse">
<stop stop-color="#14B8A6"/>
<stop offset="0.12" stop-color="#13B1A0"/>
<stop offset="0.225" stop-color="#13AB9A"/>
<stop offset="0.79" stop-color="#0F8A7D"/>
<stop offset="0.895" stop-color="#0E8477"/>
<stop offset="1" stop-color="#0D7E72"/>
</linearGradient>
<linearGradient id="paint1_linear_28_11" x1="3.82609" y1="147.333" x2="143.995" y2="150.237" gradientUnits="userSpaceOnUse">
<stop stop-color="#263238"/>
<stop offset="1" stop-color="#6B8D9E"/>
</linearGradient>
</defs>
</svg>
